<svg width="24" height="24" viewBox="0 0 24 24" fill="none" xmlns="http://www.w3.org/2000/svg">
<path d="M3.16072 2.74597C3.16072 1.64362 4.03137 0.75 5.10536 0.75H15.5357L18.2759 4.10685L20.8393 6.91935V21.254C20.8393 22.3564 19.9686 23.25 18.8946 23.25H5.10536C4.03137 23.25 3.16072 22.3564 3.16072 21.254V2.74597Z" fill="#DA3832"/>
<path d="M17.5174 14.9608C17.505 14.8683 17.4326 14.7522 17.3548 14.6742C17.132 14.4492 16.6423 14.3312 15.8963 14.3203C15.3907 14.3149 14.7825 14.3602 14.1426 14.4528C13.8562 14.284 13.561 14.099 13.3294 13.8758C12.7053 13.2788 12.1856 12.4496 11.8603 11.5369C11.8815 11.4516 11.8992 11.3772 11.9168 11.301C11.9168 11.301 12.2669 9.2542 12.175 8.56105C12.1626 8.4667 12.1537 8.43948 12.129 8.36508L12.0989 8.28524C12.0035 8.05843 11.8161 7.81891 11.5226 7.83162L11.3494 7.82617H11.3458C11.017 7.82617 10.7518 7.99855 10.6811 8.2544C10.469 9.06004 10.6882 10.2667 11.086 11.8272L10.9834 12.0812C10.6988 12.7961 10.3417 13.5147 10.027 14.1479L9.98635 14.2296C9.65399 14.8955 9.35345 15.4617 9.07944 15.9407L8.79835 16.0931C8.77713 16.104 8.29451 16.3671 8.18136 16.4361C7.22142 17.0258 6.58499 17.6935 6.47892 18.2234C6.44533 18.3939 6.47008 18.6098 6.64156 18.7096L6.91381 18.8512C7.03226 18.9111 7.15778 18.9419 7.28506 18.9419C7.96922 18.9419 8.76299 18.0673 9.85729 16.1076C11.1195 15.6867 12.5586 15.3346 13.8191 15.1423C14.779 15.6957 15.9599 16.0822 16.706 16.0822C16.8386 16.0822 16.9535 16.0695 17.0454 16.0441C17.1886 16.0042 17.3088 15.9207 17.3831 15.8082C17.528 15.585 17.5563 15.2766 17.5174 14.9608ZM7.13656 18.4102C7.26031 18.06 7.75531 17.3669 8.48544 16.7536C8.5314 16.7155 8.64454 16.6066 8.74708 16.505C7.98336 17.7552 7.47245 18.2524 7.13656 18.4102ZM11.4607 8.18908C11.68 8.18908 11.8055 8.75702 11.8161 9.29049C11.8267 9.82395 11.7047 10.1977 11.5544 10.4754C11.4289 10.0653 11.3688 9.41932 11.3688 8.99653C11.3688 8.99653 11.36 8.18908 11.4607 8.18908ZM10.1702 15.4725C10.324 15.1913 10.4831 14.8937 10.6458 14.5798C11.0435 13.8086 11.2946 13.2062 11.4802 12.7108C11.8514 13.404 12.3146 13.9937 12.8573 14.4655C12.9263 14.5236 12.9988 14.5834 13.073 14.6433C11.9681 14.8665 11.0117 15.1405 10.1702 15.4725ZM17.1409 15.409C17.0737 15.4508 16.881 15.4762 16.7572 15.4762C16.3577 15.4762 15.8609 15.2893 15.1662 14.9826C15.4331 14.9627 15.6788 14.9518 15.8981 14.9518C16.2994 14.9518 16.4178 14.95 16.812 15.0534C17.2045 15.1568 17.2098 15.3655 17.1409 15.409Z" fill="white"/>
<path d="M15.5357 5.46774V0.75L20.8393 6.91935H16.95C16.1689 6.91935 15.5357 6.26945 15.5357 5.46774Z" fill="#F0AFAD"/>
</svg>
